HIERARCHY
ROOT Pelvis
{

	OFFSET     0.000000     0.000000     0.000000
	CHANNELS 6 Xposition Yposition Zposition Zrotation Xrotation Yrotation
	JOINT LowerBack
	{

		OFFSET    -0.000691     0.176488     0.017766
		CHANNELS 3 Zrotation Xrotation Yrotation
		JOINT Chest
		{

			OFFSET    -0.002754     0.128976    -0.000512
			CHANNELS 3 Zrotation Xrotation Yrotation
			JOINT back3
			{

				OFFSET     0.002471     0.201657    -0.000850
				CHANNELS 3 Zrotation Xrotation Yrotation
				JOINT Neck
				{

					OFFSET     0.001840     0.072570     0.000595
					CHANNELS 3 Zrotation Xrotation Yrotation
					JOINT Head
					{

						OFFSET     0.003323     0.152818     0.030907
						CHANNELS 3 Zrotation Xrotation Yrotation
						JOINT joint7
						{

							OFFSET     0.000612     0.183936     0.002625
							CHANNELS 3 Zrotation Xrotation Yrotation
							End Site
							{
								OFFSET     0.000000     0.000000     0.018310
							}
						}

					}

				}

				JOINT LeftCollar
				{

					OFFSET     0.053456     0.093486     0.002205
					CHANNELS 3 Zrotation Xrotation Yrotation
					JOINT LeftShoulder
					{

						OFFSET     0.112884    -0.020868     0.002319
						CHANNELS 3 Zrotation Xrotation Yrotation
						JOINT LeftElbow
						{

							OFFSET     0.297302     0.003523    -0.020737
							CHANNELS 3 Zrotation Xrotation Yrotation
							JOINT LeftWrist
							{

								OFFSET     0.290007     0.004431    -0.007313
								CHANNELS 3 Zrotation Xrotation Yrotation
								JOINT lf_hand
								{

									OFFSET     0.117001    -0.002589    -0.008771
									CHANNELS 3 Zrotation Xrotation Yrotation
									End Site
									{
										OFFSET     0.000000    -0.009821     0.000000
									}
								}

							}

						}

					}

				}

				JOINT RightCollar
				{

					OFFSET    -0.048666     0.096092     0.000301
					CHANNELS 3 Zrotation Xrotation Yrotation
					JOINT RightShoulder
					{

						OFFSET    -0.115072    -0.022479    -0.001894
						CHANNELS 3 Zrotation Xrotation Yrotation
						JOINT RightElbow
						{

							OFFSET    -0.297072     0.004954    -0.020752
							CHANNELS 3 Zrotation Xrotation Yrotation
							JOINT RightWrist
							{

								OFFSET    -0.292425    -0.005826    -0.023258
								CHANNELS 3 Zrotation Xrotation Yrotation
								JOINT rt_hand
								{

									OFFSET    -0.118185    -0.001061    -0.015047
									CHANNELS 3 Zrotation Xrotation Yrotation
									End Site
									{
										OFFSET     0.000000    -0.009987     0.000000
									}
								}

							}

						}

					}

				}

			}

			JOINT joint13
			{

				OFFSET     0.125914     0.117470     0.000000
				CHANNELS 3 Zrotation Xrotation Yrotation
				End Site
				{
					OFFSET     0.000000     0.000000    -0.017144
				}
			}

			JOINT joint14
			{

				OFFSET    -0.120063     0.114907     0.000000
				CHANNELS 3 Zrotation Xrotation Yrotation
				End Site
				{
					OFFSET     0.000000     0.000000    -0.016479
				}
			}

		}

	}

	JOINT RightHip
	{

		OFFSET    -0.109283    -0.057257     0.000987
		CHANNELS 3 Zrotation Xrotation Yrotation
		JOINT RightKnee
		{

			OFFSET     0.002149    -0.429339     0.038617
			CHANNELS 3 Zrotation Xrotation Yrotation
			JOINT RightAnkle
			{

				OFFSET    -0.001765    -0.522522    -0.077092
				CHANNELS 3 Zrotation Xrotation Yrotation
				JOINT r_ball
				{

					OFFSET    -0.000000    -0.037315     0.142913
					CHANNELS 3 Zrotation Xrotation Yrotation
					End Site
					{
						OFFSET     0.000000     0.000000     0.014648
					}
				}

			}

		}

	}

	JOINT LeftHip
	{

		OFFSET     0.098180    -0.056757     0.003895
		CHANNELS 3 Zrotation Xrotation Yrotation
		JOINT LeftKnee
		{

			OFFSET     0.007057    -0.430531     0.035812
			CHANNELS 3 Zrotation Xrotation Yrotation
			JOINT LeftAnkle
			{

				OFFSET    -0.005475    -0.521755    -0.078136
				CHANNELS 3 Zrotation Xrotation Yrotation
				JOINT lf_ball
				{

					OFFSET     0.000065    -0.036737     0.143337
					CHANNELS 3 Zrotation Xrotation Yrotation
					End Site
					{
						OFFSET     0.000000     0.000000     0.014648
					}
				}

			}

		}

	}

}

MOTION
Frames: 7
Frame Time: 0.033333
    0.000000     0.916987     0.000000    -7.251565     2.739975   -34.414776     4.751016    -4.533853    -6.485903    14.269800    13.683646    -4.134952     0.000000     0.000000     0.000000     0.000000     0.000000     0.000000   -16.794851   -23.753174     5.452031     0.000000     0.000000     0.000000    13.711218     1.329388     5.479469   -72.181229    45.333096   -33.516354     1.169226     2.039828   -59.639042    15.506198     3.362401   -17.689215     0.000000     0.000000     0.000000   -21.394157     2.261390    -5.777991    84.441948    23.460241    -9.990938    -1.378891     2.149960    65.659058   -14.867459    -5.063007    17.080452     0.000000     0.000000     0.000000     0.000000     0.000000     0.000000     0.000000     0.000000     0.000000    10.775820   -12.362543   -22.800854     0.000000    -1.427248     0.000000   -11.095404     4.393336   -12.282197     0.000000     0.000000     0.000000    14.869637    16.827621     9.946766     0.000000    25.006016     0.000000    13.069137    27.284946    13.981820     0.000000     0.000000     0.000000 
   -0.039085     0.922367     0.035482    -7.269920     1.845005   -35.939106     4.244250    -3.442486    -4.958589    14.664838    14.222067    -2.784619     0.000000     0.000000     0.000000     0.000000     0.000000     0.000000   -16.192259   -25.229595     2.573474     0.000000     0.000000     0.000000    13.858113     1.271402     5.175742   -77.320213    45.184494   -25.467157     1.074051     1.981016   -56.927250    15.557436     3.121269   -14.984993     0.000000     0.000000     0.000000   -20.873852     2.050245    -5.366301    81.799713    25.001198    -5.504365    -1.325197     2.126143    64.185959   -15.033794    -3.878288    16.628160     0.000000     0.000000     0.000000     0.000000     0.000000     0.000000     0.000000     0.000000     0.000000    11.025561    -9.313963   -23.153172     0.000000     0.307853     0.000000   -10.587393     1.302409    -9.469048     0.000000     0.000000     0.000000    14.001184     8.467309     9.014508    -0.002599    35.294491     0.008169    12.396148    30.912237    16.721901     0.000000     0.000000     0.000000 
   -0.078526     0.928915     0.071001    -7.402906     0.901303   -37.370201     3.704333    -2.289721    -3.461600    15.224634    14.854238    -1.562137     0.000000     0.000000     0.000000     0.000000     0.000000     0.000000   -15.861911   -27.006020    -0.201459     0.000000     0.000000     0.000000    13.982192     1.200264     4.837733   -82.324692    44.386703   -17.638790     0.975453     1.914138   -54.003967    15.756257     2.889252   -12.143807     0.000000     0.000000     0.000000   -20.289345     1.798848    -4.882583    78.510124    26.115349    -0.756211    -1.270847     2.101807    62.640934   -15.289582    -2.594554    16.091660     0.000000     0.000000     0.000000     0.000000     0.000000     0.000000     0.000000     0.000000     0.000000    11.508147    -5.098929   -23.542652     0.000000     0.069962     0.000000    -9.748076    -1.479810    -7.392320     0.000000     0.000000     0.000000    12.991459     0.147937     7.981317     0.000000    45.577717     0.000000    10.635361    34.484428    20.025904     0.000000     0.000000     0.000000 
   -0.117255     0.935656     0.106446    -7.373373     0.042056   -39.001774     3.120645    -1.296890    -1.875287    15.417588    15.345246    -0.088129     0.000000     0.000000     0.000000     0.000000     0.000000     0.000000   -15.812043   -28.335384    -1.911429     0.000000     0.000000     0.000000    14.140572     1.153238     4.574553   -86.759796    43.145859    -9.995963     0.891323     1.846305   -51.535851    15.708353     2.675855    -9.563797     0.000000     0.000000     0.000000   -19.830673     1.630092    -4.525067    75.143555    27.343134     3.925504    -1.222845     2.065523    61.249794   -15.329845    -1.522037    15.712831     0.000000     0.000000     0.000000     0.000000     0.000000     0.000000     0.000000     0.000000     0.000000    11.731422    -0.814962   -23.745749     0.000000    -0.559695     0.000000    -8.503270    -3.694135    -6.848536     0.000000     0.000000     0.000000    11.770903    -6.129701     8.851369     0.000000    50.423473     0.000000     8.899612    34.821033    22.465942     0.000000     0.000000     0.000000 
   -0.154204     0.941550     0.141707    -6.895203    -0.605517   -41.135448     2.420435    -0.665455    -0.034922    14.735578    15.449191     1.934327     0.000000     0.000000     0.000000     0.000000     0.000000     0.000000   -15.806751   -28.411499    -1.753168     0.000000     0.000000     0.000000    14.394912     1.165987     4.536564   -90.138245    41.595066    -2.451104     0.852384     1.818567   -50.223198    15.014631     2.458023    -7.643109     0.000000     0.000000     0.000000   -19.697983     1.600307    -4.467432    72.219597    29.218378     8.388190    -1.186761     2.046400    60.217663   -14.860589    -1.001408    15.665470     0.000000     0.000000     0.000000     0.000000     0.000000     0.000000     0.000000     0.000000     0.000000    11.461295     3.176353   -24.174770     0.000000    -1.455408     0.000000    -6.541209    -5.082049    -6.031528     0.000000     0.000000     0.000000    10.471593    -9.869860    12.605025    -0.004329    48.450706     0.009620     8.359903    30.927174    22.588772     0.000000     0.000000     0.000000 
   -0.187599     0.945349     0.174790    -5.315208    -1.113465   -44.715588     1.387319    -0.725160     2.520338    12.157548    14.665579     5.313397     0.000000     0.000000     0.000000     0.000000     0.000000     0.000000   -14.482722   -26.733410    -1.756143     0.000000     0.000000     0.000000    14.894605     1.308861     4.931825   -91.381386    39.958126     5.404963     0.881613     1.843140   -51.122581    12.690158     2.140623    -6.937904     0.000000     0.000000     0.000000   -20.178003     1.860529    -5.057332    70.646156    32.739437    12.666322    -1.165288     2.042230    59.755325   -13.350354    -1.582565    16.331064     0.000000     0.000000     0.000000     0.000000     0.000000     0.000000     0.000000     0.000000     0.000000    10.584691     7.022031   -24.306429     0.000000    -3.554473     0.000000    -4.852283    -6.501622    -3.207794     0.000000     0.000000     0.000000     9.276875   -12.368499    17.976418    -0.003495    42.916866     0.008891     8.173196    24.915083    20.511320     0.000000     0.000000     0.000000 
   -0.218462     0.947374     0.207612    -3.083340    -1.485987   -48.994507     0.260404    -1.360318     5.412788     8.457745    13.069906     9.372231     0.000000     0.000000     0.000000     0.000000     0.000000     0.000000   -11.852049   -24.450607    -3.224311     0.000000     0.000000     0.000000    15.536307     1.562179     5.643219   -90.287544    38.052120    12.463412     0.963548     1.904399   -53.671906     9.446091     1.861361    -7.180315     0.000000     0.000000     0.000000   -21.101227     2.340706    -6.058260    69.670654    37.184555    17.212132    -1.166438     2.041406    59.823895   -11.088380    -2.896617    17.540455     0.000000     0.000000     0.000000     0.000000     0.000000     0.000000     0.000000     0.000000     0.000000     9.301275    10.616042   -23.506655     0.000000    -6.538182     0.000000    -4.435009    -8.093996     0.184436     0.000000     0.000000     0.000000     8.326557   -14.243916    23.594114     0.000000    35.334492     0.000000     7.285917    18.339760    17.186594     0.000000     0.000000     0.000000 
